<?xml version="1.0" encoding="UTF-8" standalone="no" ?>
<!DOCTYPE svg PUBLIC "-//W3C//DTD SVG 1.1//EN" "http://www.w3.org/Graphics/SVG/1.1/DTD/svg11.dtd">
<svg xmlns="http://www.w3.org/2000/svg" xmlns:xlink="http://www.w3.org/1999/xlink" version="1.1" width="1280" height="1024" viewBox="0 0 1280 1024" xml:space="preserve">
<desc>Created with Fabric.js 5.3.0</desc>
<defs>
</defs>
<g transform="matrix(1 0 0 1 640 512)" id="background-logo"  >
<rect style="stroke: none; stroke-width: 0; stroke-dasharray: none; stroke-linecap: butt; stroke-dashoffset: 0; stroke-linejoin: miter; stroke-miterlimit: 4; fill: rgb(255,255,255); fill-opacity: 0; fill-rule: nonzero; opacity: 1;"  paint-order="stroke"  x="-640" y="-512" rx="0" ry="0" width="1280" height="1024" />
</g>
<g transform="matrix(1.9211538461538462 0 0 1.9211538461538462 642.0796762899422 852.0971038722421)" id="text-logo"  >
<g style=""  paint-order="stroke"   >
		<g transform="matrix(1 0 0 1 0 0)" id="text-logo-path-0"  >
<filter id="SVGID_409059" y="-20.981836033382425%" height="141.96367206676484%" x="-20.15538808173413%" width="140.31077616346826%" >
	<feGaussianBlur in="SourceAlpha" stdDeviation="0.5"></feGaussianBlur>
	<feOffset dx="0" dy="0" result="oBlur" ></feOffset>
	<feFlood flood-color="rgb(0,0,0)" flood-opacity="1"/>
	<feComposite in2="oBlur" operator="in" />
	<feMerge>
		<feMergeNode></feMergeNode>
		<feMergeNode in="SourceGraphic"></feMergeNode>
	</feMerge>
</filter>
<path style="stroke: none; stroke-width: 0; stroke-dasharray: none; stroke-linecap: butt; stroke-dashoffset: 0; stroke-linejoin: miter; stroke-miterlimit: 4; fill: rgb(68,173,237); fill-rule: nonzero; opacity: 1;filter: url(#SVGID_409059);"  paint-order="stroke"  transform=" translate(-326.94500000000005, 49.665)" d="M 5.17 -3.72 L 5.17 -3.72 L 5.17 -85.16 Q 5.17 -88.12 13.1 -89.85 Q 21.04 -91.58 30.08 -91.58 Q 39.12 -91.58 42.96 -89.25 Q 46.8 -86.92 47.49 -84.34 L 47.49 -84.34 L 56.25 -50.33 L 57.38 -50.33 L 65.63 -82.83 Q 66.52 -86.29 74.07 -88.94 Q 81.63 -91.58 90.67 -91.58 Q 99.71 -91.58 104.03 -90.17 Q 108.34 -88.75 108.34 -86.55 L 108.34 -86.55 L 108.34 -3.72 Q 108.34 -2.02 101 -1.01 Q 93.66 0 83.08 0 Q 72.5 0 72.5 -3.72 L 72.5 -3.72 Q 72.5 -13.92 74.7 -40 L 74.7 -40 L 73.51 -40 L 66.83 -6.3 Q 66.45 -4.35 63.68 -3.46 Q 60.91 -2.58 55.37 -2.58 Q 49.82 -2.58 48.6 -3.37 Q 47.37 -4.16 46.93 -6.3 L 46.93 -6.3 L 40 -40 L 38.8 -40 Q 41.13 -13.42 41.13 -3.72 L 41.13 -3.72 Q 41.13 -0.38 25.01 0 L 25.01 0 Q 21.79 0 15.68 0 Q 9.57 0 7.37 -0.91 Q 5.17 -1.83 5.17 -3.72 Z M 116.72 -35.46 L 116.72 -35.46 Q 116.72 -58.96 129 -67.84 L 129 -67.84 Q 135.05 -72.37 142.54 -74.17 Q 150.04 -75.96 160.18 -75.96 L 160.18 -75.96 Q 192.81 -75.96 192.87 -53.29 L 192.87 -53.29 Q 192.87 -29.16 156.21 -29.16 L 156.21 -29.16 L 151.93 -29.16 Q 151.93 -20.79 159.93 -20.79 L 159.93 -20.79 Q 164.59 -20.79 172.08 -23.94 Q 179.58 -27.08 179.96 -27.08 L 179.96 -27.08 Q 182.41 -27.08 186.41 -19.75 Q 190.41 -12.41 190.41 -8.88 L 190.41 -8.88 Q 190.41 -3.84 180.08 -1.29 Q 169.75 1.26 159.9 1.26 Q 150.04 1.26 143.39 -0.28 Q 136.75 -1.83 132.56 -4.19 Q 128.37 -6.55 125.19 -10.05 Q 122.01 -13.54 120.47 -16.69 Q 118.92 -19.84 118.04 -23.75 L 118.04 -23.75 Q 116.78 -29.42 116.72 -35.46 Z M 151.68 -48 L 151.68 -39.49 Q 155.39 -39.49 157.79 -42.45 Q 160.18 -45.41 160.18 -49.63 L 160.18 -49.63 Q 160.18 -57.38 156.21 -57.38 L 156.21 -57.38 Q 156.21 -57.38 156.15 -57.38 L 156.15 -57.38 Q 151.68 -57.38 151.68 -48 L 151.68 -48 Z M 199.23 -39.37 L 199.23 -39.37 Q 199.23 -57.32 205.81 -66.64 Q 212.4 -75.96 223.86 -75.96 L 223.86 -75.96 Q 235.58 -75.96 240.93 -70.42 L 240.93 -70.42 Q 242.06 -69.16 242.69 -67.33 L 242.69 -67.33 L 243.76 -67.33 L 242.19 -76.22 L 242.19 -92.34 Q 242.19 -95.18 249.43 -97.88 Q 256.68 -100.59 265.05 -100.59 L 265.05 -100.59 Q 273.81 -100.59 276.27 -97.25 L 276.27 -97.25 Q 277.15 -95.99 277.15 -94.67 L 277.15 -94.67 L 277.15 -3.09 Q 277.15 -1.64 270 -0.82 Q 262.85 0 256.2 0 Q 249.56 0 247.7 -0.44 Q 245.84 -0.88 245.37 -1.42 Q 244.9 -1.95 244.77 -3.09 L 244.77 -3.09 L 243.76 -10.46 L 242.69 -10.46 Q 241.56 -5.92 238.1 -2.83 L 238.1 -2.83 Q 233.69 1.13 224.81 1.13 L 224.81 1.13 Q 220.02 1.13 215.89 -0.28 Q 211.77 -1.7 209.12 -3.75 Q 206.48 -5.79 204.52 -9.29 Q 202.57 -12.79 201.56 -15.94 Q 200.55 -19.09 199.99 -23.75 L 199.99 -23.75 Q 199.23 -30.61 199.23 -39.37 Z M 234.19 -37.29 L 234.19 -37.29 Q 234.19 -26.58 235.42 -22.14 Q 236.65 -17.7 239.23 -17.7 L 239.23 -17.7 Q 241.31 -17.7 242.32 -20.28 L 242.32 -20.28 L 242.32 -54.67 Q 242.32 -55.93 240.96 -56.66 Q 239.61 -57.38 238.6 -57.38 L 238.6 -57.38 Q 234.19 -57.38 234.19 -37.29 Z M 286.09 -89.07 L 286.09 -89.07 Q 286.09 -100.59 304.04 -100.59 L 304.04 -100.59 Q 312.55 -100.59 317.4 -98.1 Q 322.25 -95.62 322.25 -89 L 322.25 -89 Q 322.19 -77.41 304.17 -77.41 L 304.17 -77.41 Q 286.03 -77.41 286.09 -89.07 Z M 286.66 -3.09 L 286.66 -3.09 L 286.66 -64.37 Q 286.66 -67.21 293.93 -69.98 Q 301.21 -72.75 309.9 -72.75 L 309.9 -72.75 Q 321.62 -72.75 321.62 -66.7 L 321.62 -66.7 L 321.62 -3.09 Q 321.62 -1.64 314.19 -0.82 Q 306.75 0 298.97 0 Q 291.19 0 288.93 -0.72 Q 286.66 -1.45 286.66 -3.09 Z M 332.58 -11.24 Q 330.56 -15.75 330.56 -21.79 Q 330.56 -27.84 333.49 -32.38 Q 336.42 -36.91 340.55 -39.37 Q 344.67 -41.82 350.21 -43.34 L 350.21 -43.34 Q 358.59 -45.54 368.67 -45.54 L 368.67 -45.54 L 372.89 -45.54 Q 372.89 -50.83 369.3 -53.04 L 369.3 -53.04 Q 367.73 -53.92 364.58 -53.92 Q 361.43 -53.92 356.99 -52.25 Q 352.55 -50.58 349.55 -48.85 Q 346.56 -47.12 345.55 -47.12 L 345.55 -47.12 Q 343.22 -47.12 339.22 -53.23 Q 335.22 -59.33 335.22 -64.37 L 335.22 -64.37 Q 335.22 -66.07 340.01 -68.78 Q 344.8 -71.49 353.49 -73.73 Q 362.18 -75.96 370.43 -75.96 Q 378.69 -75.96 384.7 -74.61 Q 390.72 -73.26 394.53 -71.33 Q 398.34 -69.41 400.98 -66.17 Q 403.63 -62.93 404.98 -60.37 Q 406.34 -57.82 406.97 -53.67 L 406.97 -53.67 Q 407.85 -48.88 407.85 -41.95 L 407.85 -41.95 L 407.85 -3.09 Q 407.85 -1.64 400.95 -0.82 Q 394.05 0 387.28 0 Q 380.51 0 378.53 -0.38 Q 376.54 -0.76 376.13 -1.29 Q 375.73 -1.83 375.47 -3.09 L 375.47 -3.09 L 374.47 -10.46 L 373.39 -10.46 Q 370.18 1.13 355.76 1.13 L 355.76 1.13 Q 344.04 1.13 337.3 -4.41 L 337.3 -4.41 Q 334.59 -6.74 332.58 -11.24 Z M 365.52 -26.08 L 365.52 -26.08 Q 365.52 -17.57 369.43 -17.57 L 369.43 -17.57 Q 371.13 -17.57 372.07 -18.42 Q 373.02 -19.27 373.02 -20.28 L 373.02 -20.28 L 373.02 -35.34 Q 369.68 -35.34 367.6 -32.5 Q 365.52 -29.67 365.52 -26.08 Z M 414.62 -53.79 Q 413.58 -56.75 413.58 -61.92 Q 413.58 -67.08 415.22 -71.02 Q 416.86 -74.96 419.44 -74.96 L 419.44 -74.96 L 423.53 -74.96 L 423.53 -90.58 Q 423.53 -94.55 431.34 -97 Q 439.15 -99.46 446.65 -99.46 L 446.65 -99.46 Q 458.37 -99.46 458.37 -93.66 L 458.37 -93.66 L 458.37 -74.96 L 467.94 -74.96 Q 471.28 -74.96 471.28 -65.26 L 471.28 -65.26 Q 471.28 -58.96 469.8 -54.89 Q 468.32 -50.83 465.99 -50.83 L 465.99 -50.83 L 458.37 -50.83 L 458.37 -27.21 Q 458.37 -23.75 461.33 -22.27 Q 464.29 -20.79 466.55 -20.79 Q 468.82 -20.79 469.33 -18.58 Q 469.83 -16.38 469.83 -11.97 L 469.83 -11.97 Q 469.83 -3.34 467.53 -1.17 Q 465.23 1.01 456.98 1.01 Q 448.73 1.01 443.31 -0.06 Q 437.89 -1.13 432.98 -4.41 L 432.98 -4.41 Q 423.53 -10.71 423.53 -30.68 L 423.53 -30.68 L 423.53 -50.83 L 417.11 -50.83 Q 415.66 -50.83 414.62 -53.79 Z M 477.7 -35.46 L 477.7 -35.46 Q 477.7 -58.96 489.99 -67.84 L 489.99 -67.84 Q 496.03 -72.37 503.53 -74.17 Q 511.02 -75.96 521.17 -75.96 L 521.17 -75.96 Q 553.79 -75.96 553.86 -53.29 L 553.86 -53.29 Q 553.86 -29.16 517.2 -29.16 L 517.2 -29.16 L 512.91 -29.16 Q 512.91 -20.79 520.91 -20.79 L 520.91 -20.79 Q 525.57 -20.79 533.07 -23.94 Q 540.57 -27.08 540.94 -27.08 L 540.94 -27.08 Q 543.4 -27.08 547.4 -19.75 Q 551.4 -12.41 551.4 -8.88 L 551.4 -8.88 Q 551.4 -3.84 541.07 -1.29 Q 530.74 1.26 520.88 1.26 Q 511.02 1.26 504.38 -0.28 Q 497.73 -1.83 493.54 -4.19 Q 489.36 -6.55 486.18 -10.05 Q 482.99 -13.54 481.45 -16.69 Q 479.91 -19.84 479.03 -23.75 L 479.03 -23.75 Q 477.77 -29.42 477.7 -35.46 Z M 512.66 -48 L 512.66 -39.49 Q 516.38 -39.49 518.77 -42.45 Q 521.17 -45.41 521.17 -49.63 L 521.17 -49.63 Q 521.17 -57.38 517.2 -57.38 L 517.2 -57.38 Q 517.2 -57.38 517.13 -57.38 L 517.13 -57.38 Q 512.66 -57.38 512.66 -48 L 512.66 -48 Z M 558.27 -6.3 L 558.27 -6.3 Q 558.27 -8.13 563.62 -18.11 Q 568.97 -28.09 579.81 -46.42 L 579.81 -46.42 Q 560.47 -82.83 560.47 -84.59 L 560.47 -84.59 Q 560.47 -87.43 568.66 -89.51 Q 576.85 -91.58 583.62 -91.58 Q 590.39 -91.58 594.74 -89.54 Q 599.08 -87.49 599.46 -85.41 L 599.46 -85.41 L 604.5 -62.55 L 605.13 -62.55 L 608.72 -85.16 Q 608.84 -86.04 611.84 -87.59 Q 614.83 -89.13 619.77 -90.36 Q 624.72 -91.58 631.24 -91.58 Q 637.76 -91.58 642.13 -90.04 Q 646.51 -88.5 646.51 -84.22 L 646.51 -84.22 Q 646.51 -82.01 641.88 -71.46 Q 637.25 -60.91 627.8 -42.08 L 627.8 -42.08 Q 648.72 -8.13 648.72 -6.3 L 648.72 -6.3 Q 648.72 0 633.35 0 L 633.35 0 Q 610.55 0 608.84 -6.17 L 608.84 -6.17 L 603.81 -24.12 L 603.05 -24.12 L 598.96 -6.17 Q 597.51 0 583.96 0 L 583.96 0 Q 574.52 0 566.39 -1.61 Q 558.27 -3.21 558.27 -6.3 Z" stroke-linecap="round" />
</g>
</g>
</g>
<g transform="matrix(3.7545295738785223 0 0 3.7545295738785223 638.340220694014 379.92313552959536)" id="logo-logo"  >
<g style=""  paint-order="stroke"   >
		<g transform="matrix(0.17492935882570776 0 0 -0.17492935882570776 0 -69.49952172613322)"  >
<path style="stroke: none; stroke-width: 1; stroke-dasharray: none; stroke-linecap: butt; stroke-dashoffset: 0; stroke-linejoin: miter; stroke-miterlimit: 4; fill: rgb(52,69,117); fill-rule: nonzero; opacity: 1;"  paint-order="stroke"  transform=" translate(-5425, -1747.3000000000002)" d="M 5425 1615.16 C 5581.54 1615.16 5708.43 1674.3600000000001 5708.43 1747.3000000000002 C 5708.43 1820.2400000000002 5581.54 1879.44 5425 1879.44 C 5268.46 1879.44 5141.57 1820.24 5141.57 1747.3000000000002 C 5141.57 1674.3600000000001 5268.46 1615.1600000000003 5425 1615.1600000000003" stroke-linecap="round" />
</g>
		<g transform="matrix(0.17492935882570776 0 0 -0.17492935882570776 0 48.501788674809944)"  >
<path style="stroke: none; stroke-width: 1; stroke-dasharray: none; stroke-linecap: butt; stroke-dashoffset: 0; stroke-linejoin: miter; stroke-miterlimit: 4; fill: rgb(52,69,117); fill-rule: nonzero; opacity: 1;"  paint-order="stroke"  transform=" translate(-5425, -1072.7345)" d="M 5578.21 1324.91 C 5529.03 1316.3300000000002 5477.7 1311.73 5425 1311.73 C 5372.3 1311.73 5320.97 1316.33 5271.79 1324.91 L 5271.79 1077.18 L 5041.98 1180.44 L 5041.98 1077.18 L 5425 820.559 L 5808.02 1077.18 L 5808.02 1180.44 L 5578.21 1077.18 L 5578.21 1324.91" stroke-linecap="round" />
</g>
		<g transform="matrix(0.17492935882570776 0 0 -0.17492935882570776 0 -21.34059459462179)"  >
<path style="stroke: none; stroke-width: 1; stroke-dasharray: none; stroke-linecap: butt; stroke-dashoffset: 0; stroke-linejoin: miter; stroke-miterlimit: 4; fill: rgb(52,69,117); fill-rule: nonzero; opacity: 1;"  paint-order="stroke"  transform=" translate(-5425, -1471.9950000000003)" d="M 5702.46 1590.88 C 5628.15 1549.82 5531.02 1525 5425 1525 C 5318.98 1525 5221.85 1549.82 5147.54 1590.88 C 5103.2699999999995 1615.0900000000001 5067.26 1645.1100000000001 5041.98 1679.13 L 5041.98 1526.5300000000002 L 5041.98 1326.1400000000003 L 5147.54 1264.8600000000004 L 5147.54 1469.6900000000003 C 5228.74 1435.8400000000004 5323.58 1416.5300000000002 5425 1416.5300000000002 C 5526.42 1416.5300000000002 5621.26 1435.8400000000001 5702.46 1469.6900000000003 L 5702.46 1264.8600000000004 L 5808.02 1326.1400000000003 L 5808.02 1526.5300000000002 L 5808.02 1679.13 C 5782.740000000001 1645.1100000000001 5746.7300000000005 1615.0900000000001 5702.46 1590.88" stroke-linecap="round" />
</g>
</g>
</g>
</svg>