<?xml version="1.0" encoding="UTF-8" standalone="no"?>
<svg xmlns="http://www.w3.org/2000/svg" width="1280" height="348" viewBox="0 0 1280 348">
<desc id="desc1">Created with Fabric.js 5.3.0</desc>
<defs id="defs1">
</defs>
<g
   transform="translate(640,512)"
   id="background-logo">
<rect
   style="opacity:1;fill:#ffffff;fill-opacity:0;fill-rule:nonzero;stroke:none;stroke-width:0;stroke-linecap:butt;stroke-linejoin:miter;stroke-miterlimit:4;stroke-dasharray:none;stroke-dashoffset:0"
   paint-order="stroke"
   x="-640"
   y="-512"
   rx="0"
   ry="0"
   width="1280"
   height="1024"
   id="rect1" />
</g>
<g
   transform="matrix(1.9211538,0,0,1.9211538,776.03996,165.76204)"
   id="text-logo">
<g
   paint-order="stroke"
   id="g1">
		<g
   id="text-logo-path-0">
<path
   style="opacity:1;fill:#44aded;fill-rule:nonzero;stroke:none;stroke-width:0;stroke-linecap:butt;stroke-linejoin:miter;stroke-miterlimit:4;stroke-dasharray:none;stroke-dashoffset:0"
   paint-order="stroke"
   transform="translate(-250.41,30.415)"
   d="m 3.16,-2.28 v 0 -49.87 q 0,-1.82 4.86,-2.88 4.86,-1.06 10.4,-1.06 5.53,0 7.89,1.43 2.35,1.43 2.77,3.01 v 0 l 5.37,20.83 h 0.69 l 5.05,-19.91 q 0.54,-2.12 5.17,-3.74 4.63,-1.62 10.17,-1.62 5.53,0 8.18,0.87 2.64,0.87 2.64,2.22 v 0 50.72 q 0,1.05 -4.5,1.66 Q 57.36,0 50.88,0 44.4,0 44.4,-2.28 v 0 q 0,-6.24 1.35,-22.21 v 0 h -0.73 l -4.09,20.63 q -0.23,1.2 -1.93,1.74 -1.7,0.54 -5.09,0.54 -3.4,0 -4.15,-0.48 -0.75,-0.49 -1.02,-1.8 v 0 l -4.25,-20.63 h -0.73 q 1.43,16.27 1.43,22.21 v 0 q 0,2.05 -9.88,2.28 V 0 Q 13.35,0 9.6,0 5.86,0 4.51,-0.56 3.16,-1.12 3.16,-2.28 Z m 82.66,-19.44 v 0 q 0,-14.39 7.52,-19.82 v 0 q 3.7,-2.78 8.29,-3.88 4.59,-1.1 10.81,-1.1 v 0 q 19.98,0 20.02,13.89 v 0 q 0,14.77 -22.45,14.77 v 0 h -2.63 q 0,5.13 4.9,5.13 v 0 q 2.86,0 7.45,-1.93 4.59,-1.93 4.82,-1.93 v 0 q 1.5,0 3.95,4.5 2.45,4.49 2.45,6.65 v 0 q 0,3.09 -6.33,4.65 -6.32,1.56 -12.36,1.56 -6.04,0 -10.1,-0.94 -4.07,-0.95 -6.64,-2.4 -2.56,-1.44 -4.51,-3.58 -1.95,-2.14 -2.9,-4.07 -0.94,-1.93 -1.48,-4.32 v 0 q -0.77,-3.47 -0.81,-7.18 z m 21.41,-7.67 v 5.2 q 2.27,0 3.74,-1.81 1.47,-1.81 1.47,-4.4 v 0 q 0,-4.74 -2.43,-4.74 v 0 q 0,0 -0.04,0 v 0 q -2.74,0 -2.74,5.75 z m 43.46,5.28 v 0 q 0,-10.99 4.03,-16.7 4.03,-5.71 11.06,-5.71 v 0 q 7.17,0 10.45,3.39 v 0 q 0.69,0.78 1.08,1.89 v 0 h 0.65 L 177,-46.67 v -9.88 q 0,-1.74 4.44,-3.39 4.43,-1.66 9.56,-1.66 v 0 q 5.36,0 6.87,2.04 v 0 q 0.54,0.77 0.54,1.58 v 0 56.09 q 0,0.89 -4.38,1.39 -4.38,0.5 -8.45,0.5 -4.07,0 -5.2,-0.27 -1.14,-0.27 -1.43,-0.6 -0.29,-0.33 -0.37,-1.02 v 0 l -0.62,-4.51 h -0.65 q -0.7,2.77 -2.82,4.66 v 0 q -2.7,2.43 -8.14,2.43 v 0 q -2.93,0 -5.45,-0.86 -2.53,-0.87 -4.15,-2.13 -1.62,-1.25 -2.82,-3.39 -1.19,-2.14 -1.81,-4.07 -0.62,-1.93 -0.96,-4.78 v 0 q -0.47,-4.21 -0.47,-9.57 z m 21.41,1.27 v 0 q 0,6.56 0.75,9.28 0.76,2.72 2.34,2.72 v 0 q 1.27,0 1.89,-1.58 v 0 -21.06 q 0,-0.77 -0.83,-1.22 -0.83,-0.44 -1.45,-0.44 v 0 q -2.7,0 -2.7,12.3 z m 46.13,-31.7 v 0 q 0,-7.06 10.99,-7.06 v 0 q 5.21,0 8.18,1.52 2.97,1.52 2.97,5.57 v 0 q -0.04,7.1 -11.07,7.1 v 0 q -11.11,0 -11.07,-7.13 z m 0.34,52.65 v 0 -37.53 q 0,-1.74 4.46,-3.44 4.46,-1.69 9.78,-1.69 v 0 q 7.17,0 7.17,3.7 v 0 38.96 q 0,0.89 -4.55,1.39 -4.55,0.5 -9.31,0.5 -4.77,0 -6.16,-0.44 -1.39,-0.45 -1.39,-1.45 z m 42.47,-5 q -1.24,-2.75 -1.24,-6.46 0,-3.7 1.8,-6.48 1.79,-2.77 4.32,-4.28 2.52,-1.5 5.92,-2.43 v 0 q 5.13,-1.35 11.3,-1.35 v 0 h 2.58 q 0,-3.24 -2.19,-4.59 v 0 q -0.97,-0.54 -2.9,-0.54 -1.93,0 -4.65,1.02 -2.72,1.02 -4.55,2.09 -1.83,1.06 -2.45,1.06 v 0 q -1.42,0 -3.87,-3.75 -2.45,-3.74 -2.45,-6.82 v 0 q 0,-1.04 2.93,-2.7 2.93,-1.66 8.25,-3.03 5.33,-1.37 10.38,-1.37 5.05,0 8.74,0.83 3.68,0.83 6.01,2 2.34,1.18 3.96,3.17 1.62,1.98 2.45,3.55 0.83,1.56 1.21,4.1 v 0 q 0.54,2.94 0.54,7.18 v 0 23.8 q 0,0.89 -4.22,1.39 -4.23,0.5 -8.37,0.5 -4.15,0 -5.36,-0.23 -1.22,-0.23 -1.47,-0.56 -0.25,-0.33 -0.4,-1.1 v 0 l -0.62,-4.51 h -0.66 q -1.96,7.09 -10.8,7.09 v 0 q -7.17,0 -11.3,-3.39 v 0 q -1.66,-1.43 -2.89,-4.19 z m 20.17,-9.08 v 0 q 0,5.21 2.39,5.21 v 0 q 1.04,0 1.62,-0.52 0.58,-0.52 0.58,-1.14 v 0 -9.22 q -2.04,0 -3.32,1.74 -1.27,1.73 -1.27,3.93 z m 44.41,-16.97 q -0.64,-1.82 -0.64,-4.98 0,-3.16 1.01,-5.57 1,-2.41 2.58,-2.41 v 0 h 2.51 v -9.57 q 0,-2.43 4.78,-3.93 4.79,-1.51 9.38,-1.51 v 0 q 7.17,0 7.17,3.55 v 0 11.46 h 5.86 q 2.05,0 2.05,5.94 v 0 q 0,3.85 -0.91,6.34 -0.91,2.49 -2.33,2.49 v 0 h -4.67 v 14.47 q 0,2.12 1.81,3.02 1.82,0.91 3.2,0.91 1.39,0 1.7,1.35 0.31,1.35 0.31,4.05 v 0 q 0,5.29 -1.41,6.62 -1.41,1.33 -6.46,1.33 -5.05,0 -8.37,-0.66 -3.32,-0.65 -6.33,-2.66 v 0 q -5.78,-3.86 -5.78,-16.09 v 0 -12.34 h -3.94 q -0.88,0 -1.52,-1.81 z m 52.97,11.22 v 0 q 0,-14.39 7.53,-19.82 v 0 q 3.7,-2.78 8.29,-3.88 4.59,-1.1 10.8,-1.1 v 0 q 19.98,0 20.02,13.89 v 0 q 0,14.77 -22.45,14.77 v 0 h -2.62 q 0,5.13 4.9,5.13 v 0 q 2.85,0 7.44,-1.93 4.59,-1.93 4.82,-1.93 v 0 q 1.51,0 3.96,4.5 2.45,4.49 2.45,6.65 v 0 q 0,3.09 -6.33,4.65 -6.33,1.56 -12.36,1.56 -6.04,0 -10.11,-0.94 -4.07,-0.95 -6.63,-2.4 -2.57,-1.44 -4.52,-3.58 -1.95,-2.14 -2.89,-4.07 -0.95,-1.93 -1.49,-4.32 v 0 q -0.77,-3.47 -0.81,-7.18 z M 400,-29.39 v 5.2 q 2.28,0 3.74,-1.81 1.47,-1.81 1.47,-4.4 v 0 q 0,-4.74 -2.43,-4.74 v 0 q 0,0 -0.04,0 v 0 q -2.74,0 -2.74,5.75 z m 42.27,25.53 v 0 q 0,-1.12 3.28,-7.23 3.28,-6.11 9.91,-17.34 v 0 q -11.84,-22.3 -11.84,-23.38 v 0 q 0,-1.73 5.02,-3 5.01,-1.28 9.16,-1.28 4.14,0 6.81,1.26 2.66,1.25 2.89,2.52 v 0 l 3.08,14.01 h 0.39 l 2.2,-13.85 q 0.08,-0.54 1.91,-1.49 1.83,-0.94 4.86,-1.69 3.03,-0.76 7.02,-0.76 3.99,0 6.67,0.95 2.68,0.94 2.68,3.57 v 0 q 0,1.35 -2.83,7.81 -2.84,6.46 -8.62,17.99 v 0 q 12.8,20.79 12.8,21.91 v 0 q 0,3.86 -9.41,3.86 v 0 q -13.96,0 -15,-3.78 v 0 l -3.09,-10.99 h -0.46 l -2.51,10.99 Q 466.3,0 458.01,0 v 0 q -5.79,0 -10.76,-0.98 -4.98,-0.99 -4.98,-2.88 z"
   stroke-linecap="round"
   id="path1" />
</g>
</g>
</g>
<g
   transform="matrix(1.6944197,0,0,1.6944197,141.56281,175.93828)"
   id="logo-logo">
<g
   paint-order="stroke"
   id="g5">
		<g
   transform="matrix(0.17492936,0,0,-0.17492936,0,-69.499522)"
   id="g2">
<path
   style="opacity:1;fill:#344575;fill-rule:nonzero;stroke:none;stroke-width:1;stroke-linecap:butt;stroke-linejoin:miter;stroke-miterlimit:4;stroke-dasharray:none;stroke-dashoffset:0"
   paint-order="stroke"
   transform="translate(-5425,-1747.3)"
   d="m 5425,1615.16 c 156.54,0 283.43,59.2 283.43,132.14 0,72.94 -126.89,132.14 -283.43,132.14 -156.54,0 -283.43,-59.2 -283.43,-132.14 0,-72.94 126.89,-132.14 283.43,-132.14"
   stroke-linecap="round"
   id="path2" />
</g>
		<g
   transform="matrix(0.17492936,0,0,-0.17492936,0,48.501789)"
   id="g3">
<path
   style="opacity:1;fill:#344575;fill-rule:nonzero;stroke:none;stroke-width:1;stroke-linecap:butt;stroke-linejoin:miter;stroke-miterlimit:4;stroke-dasharray:none;stroke-dashoffset:0"
   paint-order="stroke"
   transform="translate(-5425,-1072.7345)"
   d="m 5578.21,1324.91 c -49.18,-8.58 -100.51,-13.18 -153.21,-13.18 -52.7,0 -104.03,4.6 -153.21,13.18 v -247.73 l -229.81,103.26 V 1077.18 L 5425,820.559 5808.02,1077.18 v 103.26 l -229.81,-103.26 v 247.73"
   stroke-linecap="round"
   id="path3" />
</g>
		<g
   transform="matrix(0.17492936,0,0,-0.17492936,0,-21.340595)"
   id="g4">
<path
   style="opacity:1;fill:#344575;fill-rule:nonzero;stroke:none;stroke-width:1;stroke-linecap:butt;stroke-linejoin:miter;stroke-miterlimit:4;stroke-dasharray:none;stroke-dashoffset:0"
   paint-order="stroke"
   transform="translate(-5425,-1471.995)"
   d="M 5702.46,1590.88 C 5628.15,1549.82 5531.02,1525 5425,1525 c -106.02,0 -203.15,24.82 -277.46,65.88 -44.27,24.21 -80.28,54.23 -105.56,88.25 v -152.6 -200.39 l 105.56,-61.28 v 204.83 c 81.2,-33.85 176.04,-53.16 277.46,-53.16 101.42,0 196.26,19.31 277.46,53.16 v -204.83 l 105.56,61.28 v 200.39 152.6 c -25.28,-34.02 -61.29,-64.04 -105.56,-88.25"
   stroke-linecap="round"
   id="path4" />
</g>
</g>
</g>
</svg>
