<?xml version="1.0" encoding="UTF-8" standalone="no" ?>
<!DOCTYPE svg PUBLIC "-//W3C//DTD SVG 1.1//EN" "http://www.w3.org/Graphics/SVG/1.1/DTD/svg11.dtd">
<svg xmlns="http://www.w3.org/2000/svg" xmlns:xlink="http://www.w3.org/1999/xlink" version="1.1" width="1280" height="1024" viewBox="0 0 1280 1024" xml:space="preserve">
<desc>Created with Fabric.js 5.3.0</desc>
<defs>
</defs>
<g transform="matrix(1 0 0 1 640 512)" id="background-logo"  >
<rect style="stroke: none; stroke-width: 0; stroke-dasharray: none; stroke-linecap: butt; stroke-dashoffset: 0; stroke-linejoin: miter; stroke-miterlimit: 4; fill: rgb(255,255,255); fill-opacity: 0; fill-rule: nonzero; opacity: 1;"  paint-order="stroke"  x="-640" y="-512" rx="0" ry="0" width="1280" height="1024" />
</g>
<g transform="matrix(1.9211538461538462 0 0 1.9211538461538462 641.4249554652981 876.7735662297209)" id="text-logo"  >
<g style=""  paint-order="stroke"   >
		<g transform="matrix(1 0 0 1 5.684342e-14 0)" id="text-logo-path-0"  >
<filter id="SVGID_205479" y="-21.01327388793191%" height="142.02654777586383%" x="-20.160359204618345%" width="140.3207184092367%" >
	<feGaussianBlur in="SourceAlpha" stdDeviation="0.5"></feGaussianBlur>
	<feOffset dx="0" dy="0" result="oBlur" ></feOffset>
	<feFlood flood-color="rgb(0,0,0)" flood-opacity="1"/>
	<feComposite in2="oBlur" operator="in" />
	<feMerge>
		<feMergeNode></feMergeNode>
		<feMergeNode in="SourceGraphic"></feMergeNode>
	</feMerge>
</filter>
<path style="stroke: rgb(255,255,255); stroke-width: 0; stroke-dasharray: none; stroke-linecap: butt; stroke-dashoffset: 0; stroke-linejoin: miter; stroke-miterlimit: 4; fill: rgb(68,173,237); fill-rule: nonzero; opacity: 1;filter: url(#SVGID_205479);"  paint-order="stroke"  transform=" translate(-316.8, 48.125)" d="M 5 -3.6 L 5 -3.6 L 5 -82.52 Q 5 -85.39 12.7 -87.07 Q 20.39 -88.75 29.14 -88.75 Q 37.9 -88.75 41.63 -86.49 Q 45.35 -84.23 46.02 -81.73 L 46.02 -81.73 L 54.5 -48.77 L 55.6 -48.77 L 63.6 -80.26 Q 64.45 -83.62 71.78 -86.18 Q 79.1 -88.75 87.86 -88.75 Q 96.62 -88.75 100.8 -87.37 Q 104.98 -86 104.98 -83.86 L 104.98 -83.86 L 104.98 -3.6 Q 104.98 -1.95 97.87 -0.98 Q 90.76 0 80.51 0 Q 70.25 0 70.25 -3.6 L 70.25 -3.6 Q 70.25 -13.49 72.39 -38.76 L 72.39 -38.76 L 71.23 -38.76 L 64.76 -6.1 Q 64.39 -4.21 61.71 -3.36 Q 59.02 -2.5 53.65 -2.5 Q 48.28 -2.5 47.09 -3.27 Q 45.9 -4.03 45.47 -6.1 L 45.47 -6.1 L 38.76 -38.76 L 37.6 -38.76 Q 39.86 -13 39.86 -3.6 L 39.86 -3.6 Q 39.86 -0.37 24.23 0 L 24.23 0 Q 21.12 0 15.2 0 Q 9.28 0 7.14 -0.89 Q 5 -1.77 5 -3.6 Z M 113.1 -34.36 L 113.1 -34.36 Q 113.1 -57.13 125 -65.73 L 125 -65.73 Q 130.86 -70.13 138.12 -71.87 Q 145.39 -73.61 155.21 -73.61 L 155.21 -73.61 Q 186.83 -73.61 186.89 -51.64 L 186.89 -51.64 Q 186.89 -28.26 151.37 -28.26 L 151.37 -28.26 L 147.22 -28.26 Q 147.22 -20.14 154.97 -20.14 L 154.97 -20.14 Q 159.48 -20.14 166.75 -23.19 Q 174.01 -26.25 174.38 -26.25 L 174.38 -26.25 Q 176.76 -26.25 180.63 -19.13 Q 184.51 -12.02 184.51 -8.61 L 184.51 -8.61 Q 184.51 -3.72 174.5 -1.25 Q 164.49 1.22 154.94 1.22 Q 145.39 1.22 138.95 -0.27 Q 132.51 -1.77 128.45 -4.06 Q 124.39 -6.35 121.31 -9.74 Q 118.23 -13.12 116.73 -16.17 Q 115.23 -19.23 114.38 -23.01 L 114.38 -23.01 Q 113.16 -28.5 113.1 -34.36 Z M 146.97 -46.51 L 146.97 -38.27 Q 150.57 -38.27 152.89 -41.14 Q 155.21 -44.01 155.21 -48.1 L 155.21 -48.1 Q 155.21 -55.6 151.37 -55.6 L 151.37 -55.6 Q 151.37 -55.6 151.31 -55.6 L 151.31 -55.6 Q 146.97 -55.6 146.97 -46.51 L 146.97 -46.51 Z M 193.05 -38.15 L 193.05 -38.15 Q 193.05 -55.54 199.43 -64.58 Q 205.81 -73.61 216.92 -73.61 L 216.92 -73.61 Q 228.27 -73.61 233.46 -68.24 L 233.46 -68.24 Q 234.56 -67.02 235.17 -65.25 L 235.17 -65.25 L 236.21 -65.25 L 234.68 -73.85 L 234.68 -89.48 Q 234.68 -92.22 241.7 -94.85 Q 248.72 -97.47 256.84 -97.47 L 256.84 -97.47 Q 265.32 -97.47 267.7 -94.24 L 267.7 -94.24 Q 268.55 -93.02 268.55 -91.74 L 268.55 -91.74 L 268.55 -2.99 Q 268.55 -1.59 261.63 -0.79 Q 254.7 0 248.26 0 Q 241.82 0 240.02 -0.43 Q 238.22 -0.85 237.76 -1.37 Q 237.3 -1.89 237.18 -2.99 L 237.18 -2.99 L 236.21 -10.13 L 235.17 -10.13 Q 234.07 -5.74 230.71 -2.75 L 230.71 -2.75 Q 226.44 1.1 217.83 1.1 L 217.83 1.1 Q 213.2 1.1 209.2 -0.27 Q 205.2 -1.65 202.64 -3.63 Q 200.07 -5.62 198.18 -9 Q 196.29 -12.39 195.31 -15.44 Q 194.34 -18.49 193.79 -23.01 L 193.79 -23.01 Q 193.05 -29.66 193.05 -38.15 Z M 226.93 -36.13 L 226.93 -36.13 Q 226.93 -25.76 228.12 -21.45 Q 229.31 -17.15 231.81 -17.15 L 231.81 -17.15 Q 233.83 -17.15 234.8 -19.65 L 234.8 -19.65 L 234.8 -52.98 Q 234.8 -54.2 233.49 -54.9 Q 232.18 -55.6 231.2 -55.6 L 231.2 -55.6 Q 226.93 -55.6 226.93 -36.13 Z M 277.22 -86.3 L 277.22 -86.3 Q 277.22 -97.47 294.62 -97.47 L 294.62 -97.47 Q 302.86 -97.47 307.56 -95.06 Q 312.26 -92.65 312.26 -86.24 L 312.26 -86.24 Q 312.19 -75.01 294.74 -75.01 L 294.74 -75.01 Q 277.16 -75.01 277.22 -86.3 Z M 277.77 -2.99 L 277.77 -2.99 L 277.77 -62.38 Q 277.77 -65.12 284.82 -67.81 Q 291.87 -70.5 300.29 -70.5 L 300.29 -70.5 Q 311.65 -70.5 311.65 -64.64 L 311.65 -64.64 L 311.65 -2.99 Q 311.65 -1.59 304.44 -0.79 Q 297.24 0 289.7 0 Q 282.17 0 279.97 -0.7 Q 277.77 -1.4 277.77 -2.99 Z M 322.27 -10.89 Q 320.31 -15.26 320.31 -21.12 Q 320.31 -26.98 323.15 -31.37 Q 325.99 -35.77 329.99 -38.15 Q 333.98 -40.53 339.36 -41.99 L 339.36 -41.99 Q 347.47 -44.13 357.24 -44.13 L 357.24 -44.13 L 361.33 -44.13 Q 361.33 -49.26 357.85 -51.39 L 357.85 -51.39 Q 356.32 -52.25 353.27 -52.25 Q 350.22 -52.25 345.92 -50.63 Q 341.61 -49.01 338.71 -47.33 Q 335.82 -45.65 334.84 -45.65 L 334.84 -45.65 Q 332.58 -45.65 328.7 -51.57 Q 324.83 -57.5 324.83 -62.38 L 324.83 -62.38 Q 324.83 -64.03 329.47 -66.65 Q 334.11 -69.27 342.53 -71.44 Q 350.95 -73.61 358.95 -73.61 Q 366.94 -73.61 372.77 -72.3 Q 378.6 -70.98 382.29 -69.12 Q 385.99 -67.26 388.55 -64.12 Q 391.11 -60.97 392.43 -58.5 Q 393.74 -56.03 394.35 -52 L 394.35 -52 Q 395.2 -47.36 395.2 -40.65 L 395.2 -40.65 L 395.2 -2.99 Q 395.2 -1.59 388.52 -0.79 Q 381.84 0 375.27 0 Q 368.71 0 366.79 -0.37 Q 364.87 -0.73 364.47 -1.25 Q 364.07 -1.77 363.83 -2.99 L 363.83 -2.99 L 362.85 -10.13 L 361.82 -10.13 Q 358.7 1.1 344.73 1.1 L 344.73 1.1 Q 333.37 1.1 326.84 -4.27 L 326.84 -4.27 Q 324.22 -6.53 322.27 -10.89 Z M 354.19 -25.27 L 354.19 -25.27 Q 354.19 -17.03 357.97 -17.03 L 357.97 -17.03 Q 359.62 -17.03 360.53 -17.85 Q 361.45 -18.68 361.45 -19.65 L 361.45 -19.65 L 361.45 -34.24 Q 358.22 -34.24 356.2 -31.49 Q 354.19 -28.75 354.19 -25.27 Z M 401.76 -52.12 Q 400.76 -54.99 400.76 -60 Q 400.76 -65 402.34 -68.82 Q 403.93 -72.63 406.43 -72.63 L 406.43 -72.63 L 410.4 -72.63 L 410.4 -87.77 Q 410.4 -91.61 417.97 -93.99 Q 425.54 -96.37 432.8 -96.37 L 432.8 -96.37 Q 444.15 -96.37 444.15 -90.76 L 444.15 -90.76 L 444.15 -72.63 L 453.43 -72.63 Q 456.67 -72.63 456.67 -63.23 L 456.67 -63.23 Q 456.67 -57.13 455.23 -53.19 Q 453.8 -49.26 451.54 -49.26 L 451.54 -49.26 L 444.15 -49.26 L 444.15 -26.37 Q 444.15 -23.01 447.02 -21.58 Q 449.89 -20.14 452.09 -20.14 Q 454.28 -20.14 454.77 -18.01 Q 455.26 -15.87 455.26 -11.6 L 455.26 -11.6 Q 455.26 -3.23 453.03 -1.13 Q 450.81 0.98 442.81 0.98 Q 434.81 0.98 429.57 -0.06 Q 424.32 -1.1 419.56 -4.27 L 419.56 -4.27 Q 410.4 -10.38 410.4 -29.72 L 410.4 -29.72 L 410.4 -49.26 L 404.17 -49.26 Q 402.77 -49.26 401.76 -52.12 Z M 462.89 -34.36 L 462.89 -34.36 Q 462.89 -57.13 474.79 -65.73 L 474.79 -65.73 Q 480.65 -70.13 487.92 -71.87 Q 495.18 -73.61 505 -73.61 L 505 -73.61 Q 536.62 -73.61 536.68 -51.64 L 536.68 -51.64 Q 536.68 -28.26 501.16 -28.26 L 501.16 -28.26 L 497.01 -28.26 Q 497.01 -20.14 504.76 -20.14 L 504.76 -20.14 Q 509.28 -20.14 516.54 -23.19 Q 523.8 -26.25 524.17 -26.25 L 524.17 -26.25 Q 526.55 -26.25 530.43 -19.13 Q 534.3 -12.02 534.3 -8.61 L 534.3 -8.61 Q 534.3 -3.72 524.29 -1.25 Q 514.28 1.22 504.73 1.22 Q 495.18 1.22 488.74 -0.27 Q 482.3 -1.77 478.24 -4.06 Q 474.18 -6.35 471.1 -9.74 Q 468.02 -13.12 466.52 -16.17 Q 465.03 -19.23 464.17 -23.01 L 464.17 -23.01 Q 462.95 -28.5 462.89 -34.36 Z M 496.77 -46.51 L 496.77 -38.27 Q 500.37 -38.27 502.69 -41.14 Q 505 -44.01 505 -48.1 L 505 -48.1 Q 505 -55.6 501.16 -55.6 L 501.16 -55.6 Q 501.16 -55.6 501.1 -55.6 L 501.1 -55.6 Q 496.77 -55.6 496.77 -46.51 L 496.77 -46.51 Z M 540.95 -6.1 L 540.95 -6.1 Q 540.95 -7.87 546.14 -17.55 Q 551.33 -27.22 561.83 -44.98 L 561.83 -44.98 Q 543.09 -80.26 543.09 -81.97 L 543.09 -81.97 Q 543.09 -84.72 551.03 -86.73 Q 558.96 -88.75 565.52 -88.75 Q 572.08 -88.75 576.29 -86.76 Q 580.51 -84.78 580.87 -82.76 L 580.87 -82.76 L 585.75 -60.61 L 586.36 -60.61 L 589.84 -82.52 Q 589.97 -83.37 592.86 -84.87 Q 595.76 -86.36 600.56 -87.55 Q 605.35 -88.75 611.66 -88.75 Q 617.98 -88.75 622.22 -87.25 Q 626.46 -85.75 626.46 -81.6 L 626.46 -81.6 Q 626.46 -79.47 621.98 -69.24 Q 617.49 -59.02 608.34 -40.77 L 608.34 -40.77 Q 628.6 -7.87 628.6 -6.1 L 628.6 -6.1 Q 628.6 0 613.71 0 L 613.71 0 Q 591.61 0 589.97 -5.98 L 589.97 -5.98 L 585.08 -23.38 L 584.35 -23.38 L 580.38 -5.98 Q 578.98 0 565.86 0 L 565.86 0 Q 556.7 0 548.83 -1.56 Q 540.95 -3.11 540.95 -6.1 Z" stroke-linecap="round" />
</g>
</g>
</g>
<g transform="matrix(3.65275486166676 0 0 3.6527548616667596 637.8020174511192 378.7352034292519)" id="logo-logo"  >
<g style=""  paint-order="stroke"   >
		<g transform="matrix(0.17492935882570776 0 0 -0.17492935882570776 0 -69.49952172613322)"  >
<path style="stroke: none; stroke-width: 1; stroke-dasharray: none; stroke-linecap: butt; stroke-dashoffset: 0; stroke-linejoin: miter; stroke-miterlimit: 4; fill: rgb(60,76,124); fill-rule: nonzero; opacity: 1;"  paint-order="stroke"  transform=" translate(-5425, -1747.3000000000002)" d="M 5425 1615.16 C 5581.54 1615.16 5708.43 1674.3600000000001 5708.43 1747.3000000000002 C 5708.43 1820.2400000000002 5581.54 1879.44 5425 1879.44 C 5268.46 1879.44 5141.57 1820.24 5141.57 1747.3000000000002 C 5141.57 1674.3600000000001 5268.46 1615.1600000000003 5425 1615.1600000000003" stroke-linecap="round" />
</g>
		<g transform="matrix(0.17492935882570776 0 0 -0.17492935882570776 0 48.501788674809944)"  >
<path style="stroke: none; stroke-width: 1; stroke-dasharray: none; stroke-linecap: butt; stroke-dashoffset: 0; stroke-linejoin: miter; stroke-miterlimit: 4; fill: rgb(60,76,124); fill-rule: nonzero; opacity: 1;"  paint-order="stroke"  transform=" translate(-5425, -1072.7345)" d="M 5578.21 1324.91 C 5529.03 1316.3300000000002 5477.7 1311.73 5425 1311.73 C 5372.3 1311.73 5320.97 1316.33 5271.79 1324.91 L 5271.79 1077.18 L 5041.98 1180.44 L 5041.98 1077.18 L 5425 820.559 L 5808.02 1077.18 L 5808.02 1180.44 L 5578.21 1077.18 L 5578.21 1324.91" stroke-linecap="round" />
</g>
		<g transform="matrix(0.17492935882570776 0 0 -0.17492935882570776 0 -21.34059459462179)"  >
<path style="stroke: none; stroke-width: 1; stroke-dasharray: none; stroke-linecap: butt; stroke-dashoffset: 0; stroke-linejoin: miter; stroke-miterlimit: 4; fill: rgb(60,76,124); fill-rule: nonzero; opacity: 1;"  paint-order="stroke"  transform=" translate(-5425, -1471.9950000000003)" d="M 5702.46 1590.88 C 5628.15 1549.82 5531.02 1525 5425 1525 C 5318.98 1525 5221.85 1549.82 5147.54 1590.88 C 5103.2699999999995 1615.0900000000001 5067.26 1645.1100000000001 5041.98 1679.13 L 5041.98 1526.5300000000002 L 5041.98 1326.1400000000003 L 5147.54 1264.8600000000004 L 5147.54 1469.6900000000003 C 5228.74 1435.8400000000004 5323.58 1416.5300000000002 5425 1416.5300000000002 C 5526.42 1416.5300000000002 5621.26 1435.8400000000001 5702.46 1469.6900000000003 L 5702.46 1264.8600000000004 L 5808.02 1326.1400000000003 L 5808.02 1526.5300000000002 L 5808.02 1679.13 C 5782.740000000001 1645.1100000000001 5746.7300000000005 1615.0900000000001 5702.46 1590.88" stroke-linecap="round" />
</g>
</g>
</g>
</svg>